<svg width="455" height="447" viewBox="0 0 455 447" fill="none" xmlns="http://www.w3.org/2000/svg">
<path d="M332.762 57.8177L239.973 4.0752C237.195 2.01455 233.935 0.681885 230.495 0.200853C227.056 -0.280179 223.549 0.106152 220.302 1.324L121.574 58.1843C116.749 60.2019 115.45 66.8052 115.079 68.0892V248.942C114.849 250.791 115.124 252.668 115.874 254.377C116.625 256.086 117.824 257.566 119.347 258.663L184.485 296.631C187.059 297.134 189.709 297.122 192.278 296.598C194.848 296.073 197.285 295.045 199.447 293.575C201.608 292.105 203.45 290.223 204.865 288.039C206.279 285.855 207.237 283.413 207.683 280.857V190.798C207.697 190.399 207.805 190.009 207.998 189.659C208.191 189.309 208.465 189.008 208.796 188.78L244.427 168.787L257.232 161.45C259.514 160.219 261.401 158.381 262.681 156.144C263.96 153.908 264.579 151.361 264.47 148.794L262.428 81.8458C262.435 81.4676 262.335 81.0951 262.138 80.7708C261.941 80.4464 261.656 80.1833 261.315 80.0114C255.747 76.8933 245.169 71.0239 242.757 68.6394C241.546 67.7604 240.083 67.2862 238.581 67.2862C237.079 67.2862 235.616 67.7604 234.406 68.6394L184.856 97.62C183.837 98.3213 183.002 99.2531 182.421 100.338C181.84 101.423 181.53 102.629 181.516 103.856V259.581C181.544 259.956 181.465 260.331 181.288 260.665C181.111 260.998 180.843 261.275 180.515 261.466C180.187 261.657 179.811 261.753 179.431 261.744C179.05 261.735 178.68 261.621 178.361 261.415L142.359 242.155C142.031 241.968 141.756 241.702 141.561 241.381C141.367 241.06 141.258 240.695 141.245 240.321C141.245 226.198 141.245 92.6674 141.245 85.6974C140.872 83.9133 141.003 82.0619 141.625 80.3467C142.247 78.6316 143.336 77.1192 144.771 75.9762C144.771 75.9762 216.961 34.7067 221.601 31.7719C223.019 30.893 224.659 30.4266 226.333 30.4266C228.007 30.4266 229.647 30.893 231.065 31.7719C231.065 31.7719 294.348 68.4561 301.771 71.5742C306.323 74.0761 309.814 78.1122 311.606 82.9462C311.606 88.082 311.606 157.415 311.606 165.486C311.832 167.888 311.357 170.304 310.239 172.449C309.121 174.594 307.407 176.378 305.297 177.591L235.148 218.311C234.806 218.527 234.524 218.826 234.329 219.178C234.135 219.531 234.033 219.927 234.035 220.329V247.108C234.047 247.488 234.159 247.859 234.359 248.183C234.56 248.508 234.843 248.776 235.179 248.961C235.515 249.145 235.894 249.241 236.279 249.237C236.664 249.234 237.042 249.133 237.375 248.942L328.123 196.484C331.003 195.194 333.561 193.292 335.614 190.915C337.667 188.537 339.164 185.742 340 182.727V72.6747C339.646 66.9775 337.048 61.6442 332.762 57.8177ZM208.054 117.613C208.04 116.455 208.343 115.316 208.931 114.315C209.519 113.314 210.37 112.489 211.394 111.927L237.746 97.0697C238.366 96.716 239.069 96.5294 239.785 96.529C240.501 96.5286 241.204 96.7142 241.825 97.0672C242.445 97.4202 242.961 97.9284 243.32 98.5405C243.679 99.1526 243.869 99.8473 243.87 100.555V134.671C243.882 135.547 243.666 136.412 243.243 137.182C242.821 137.953 242.206 138.604 241.458 139.073L210.466 157.415C210.114 157.562 209.731 157.623 209.35 157.595C208.969 157.566 208.599 157.449 208.273 157.252C207.947 157.055 207.673 156.784 207.473 156.461C207.274 156.139 207.155 155.774 207.126 155.397L208.054 117.613Z" fill="url(#paint0_linear_130_4)"/>
<path d="M31.8 361.6C41 361.6 47.7 363.6 51.9 367.6C56.1667 371.533 58.3 376.967 58.3 383.9C58.3 387.033 57.8333 390.033 56.9 392.9C55.9667 395.7 54.4 398.233 52.2 400.5C50.0667 402.7 47.2333 404.433 43.7 405.7C40.1667 406.967 35.8 407.6 30.6 407.6H24.1V433H9V361.6H31.8ZM31 374H24.1V395.2H29.1C31.9667 395.2 34.4333 394.833 36.5 394.1C38.5667 393.367 40.1667 392.2 41.3 390.6C42.4333 389 43 386.933 43 384.4C43 380.867 42.0333 378.267 40.1 376.6C38.1667 374.867 35.1333 374 31 374ZM86.093 361.6C92.5596 361.6 97.893 362.4 102.093 364C106.293 365.533 109.426 367.9 111.493 371.1C113.56 374.233 114.593 378.2 114.593 383C114.593 386.267 113.96 389.133 112.693 391.6C111.493 394 109.86 396.067 107.793 397.8C105.793 399.467 103.626 400.833 101.293 401.9L122.293 433H105.493L88.493 405.6H80.393V433H65.293V361.6H86.093ZM84.993 374H80.393V393.3H85.293C88.6263 393.3 91.3263 392.933 93.393 392.2C95.4596 391.467 96.9596 390.367 97.893 388.9C98.8263 387.367 99.293 385.533 99.293 383.4C99.293 381.133 98.7596 379.333 97.693 378C96.693 376.6 95.1263 375.6 92.993 375C90.9263 374.333 88.2596 374 84.993 374ZM189.609 397.2C189.609 402.733 188.909 407.767 187.509 412.3C186.175 416.767 184.109 420.633 181.309 423.9C178.575 427.167 175.042 429.667 170.709 431.4C166.442 433.133 161.409 434 155.609 434C149.809 434 144.742 433.133 140.409 431.4C136.142 429.6 132.609 427.1 129.809 423.9C127.075 420.633 125.009 416.733 123.609 412.2C122.275 407.667 121.609 402.633 121.609 397.1C121.609 389.7 122.809 383.267 125.209 377.8C127.675 372.333 131.409 368.1 136.409 365.1C141.475 362.033 147.909 360.5 155.709 360.5C163.442 360.5 169.809 362.033 174.809 365.1C179.809 368.1 183.509 372.367 185.909 377.9C188.375 383.367 189.609 389.8 189.609 397.2ZM137.509 397.2C137.509 402.2 138.142 406.5 139.409 410.1C140.675 413.7 142.642 416.467 145.309 418.4C147.975 420.333 151.409 421.3 155.609 421.3C159.942 421.3 163.409 420.333 166.009 418.4C168.675 416.467 170.609 413.7 171.809 410.1C173.075 406.5 173.709 402.2 173.709 397.2C173.709 389.667 172.309 383.767 169.509 379.5C166.709 375.233 162.109 373.1 155.709 373.1C151.442 373.1 147.975 374.067 145.309 376C142.642 377.933 140.675 380.7 139.409 384.3C138.142 387.9 137.509 392.2 137.509 397.2Z" fill="url(#paint1_linear_130_4)"/>
<path d="M203.398 434.1C200.865 434.1 198.632 433.933 196.698 433.6C194.765 433.267 193.098 432.867 191.698 432.4V419.6C193.165 420.067 194.698 420.5 196.298 420.9C197.965 421.233 199.732 421.4 201.598 421.4C203.398 421.4 204.998 421.067 206.398 420.4C207.798 419.733 208.898 418.467 209.698 416.6C210.498 414.733 210.898 412.067 210.898 408.6V361.6H225.998V408.5C225.998 414.633 225.032 419.6 223.098 423.4C221.232 427.133 218.598 429.867 215.198 431.6C211.798 433.267 207.865 434.1 203.398 434.1ZM237.004 433V361.6H252.104V433H237.004ZM326.909 433H307.709L276.609 379H276.209C276.276 380.667 276.343 382.367 276.409 384.1C276.476 385.767 276.543 387.467 276.609 389.2C276.743 390.867 276.843 392.567 276.909 394.3C276.976 395.967 277.043 397.667 277.109 399.4V433H263.609V361.6H282.709L313.709 415.1H314.009C313.943 413.433 313.876 411.8 313.809 410.2C313.743 408.533 313.676 406.9 313.609 405.3C313.609 403.633 313.576 402 313.509 400.4C313.443 398.733 313.376 397.067 313.309 395.4V361.6H326.909V433ZM365.557 392.9H393.857V429.9C390.124 431.167 386.224 432.167 382.157 432.9C378.157 433.633 373.59 434 368.457 434C361.39 434 355.357 432.6 350.357 429.8C345.424 427 341.657 422.867 339.057 417.4C336.524 411.933 335.257 405.2 335.257 397.2C335.257 389.733 336.69 383.267 339.557 377.8C342.49 372.333 346.724 368.1 352.257 365.1C357.79 362.1 364.557 360.6 372.557 360.6C376.357 360.6 380.09 361 383.757 361.8C387.424 362.6 390.757 363.667 393.757 365L388.757 377.1C386.557 375.967 384.057 375.033 381.257 374.3C378.457 373.567 375.524 373.2 372.457 373.2C368.057 373.2 364.224 374.2 360.957 376.2C357.757 378.2 355.257 381.033 353.457 384.7C351.724 388.3 350.857 392.567 350.857 397.5C350.857 402.167 351.49 406.3 352.757 409.9C354.024 413.5 356.024 416.333 358.757 418.4C361.49 420.4 365.057 421.4 369.457 421.4C370.924 421.4 372.19 421.367 373.257 421.3C374.39 421.167 375.424 421.033 376.357 420.9C377.29 420.7 378.19 420.533 379.057 420.4V405.5H365.557V392.9Z" fill="#FF5B00"/>
<defs>
<linearGradient id="paint0_linear_130_4" x1="113.965" y1="148.611" x2="340" y2="148.611" gradientUnits="userSpaceOnUse">
<stop stop-color="#EA5B0C"/>
<stop offset="1" stop-color="#F28D33"/>
</linearGradient>
<linearGradient id="paint1_linear_130_4" x1="8.99153e-07" y1="367.918" x2="337.393" y2="425.776" gradientUnits="userSpaceOnUse">
<stop stop-color="white"/>
<stop offset="1" stop-color="white"/>
</linearGradient>
</defs>
</svg>
