<svg width="385" height="75" viewBox="0 0 385 75" fill="none" xmlns="http://www.w3.org/2000/svg">
<path d="M22.8 1.6C32 1.6 38.7 3.6 42.9 7.6C47.1667 11.5333 49.3 16.9667 49.3 23.9C49.3 27.0333 48.8333 30.0333 47.9 32.9C46.9667 35.7 45.4 38.2333 43.2 40.5C41.0667 42.7 38.2333 44.4333 34.7 45.7C31.1667 46.9667 26.8 47.6 21.6 47.6H15.1V73H3.57628e-07V1.6H22.8ZM22 14H15.1V35.2H20.1C22.9667 35.2 25.4333 34.8333 27.5 34.1C29.5667 33.3667 31.1667 32.2 32.3 30.6C33.4333 29 34 26.9333 34 24.4C34 20.8667 33.0333 18.2667 31.1 16.6C29.1667 14.8667 26.1333 14 22 14ZM77.093 1.6C83.5596 1.6 88.893 2.4 93.093 3.99999C97.293 5.53333 100.426 7.9 102.493 11.1C104.56 14.2333 105.593 18.2 105.593 23C105.593 26.2667 104.96 29.1333 103.693 31.6C102.493 34 100.86 36.0667 98.793 37.8C96.793 39.4667 94.6263 40.8333 92.293 41.9L113.293 73H96.493L79.493 45.6H71.393V73H56.293V1.6H77.093ZM75.993 14H71.393V33.3H76.293C79.6263 33.3 82.3263 32.9333 84.393 32.2C86.4596 31.4667 87.9596 30.3667 88.893 28.9C89.8263 27.3667 90.293 25.5333 90.293 23.4C90.293 21.1333 89.7596 19.3333 88.693 18C87.693 16.6 86.1263 15.6 83.993 15C81.9263 14.3333 79.2596 14 75.993 14ZM180.609 37.2C180.609 42.7333 179.909 47.7667 178.509 52.3C177.175 56.7667 175.109 60.6333 172.309 63.9C169.575 67.1667 166.042 69.6667 161.709 71.4C157.442 73.1333 152.409 74 146.609 74C140.809 74 135.742 73.1333 131.409 71.4C127.142 69.6 123.609 67.1 120.809 63.9C118.075 60.6333 116.009 56.7333 114.609 52.2C113.275 47.6667 112.609 42.6333 112.609 37.1C112.609 29.7 113.809 23.2667 116.209 17.8C118.675 12.3333 122.409 8.1 127.409 5.1C132.475 2.03333 138.909 0.499998 146.709 0.499998C154.442 0.499998 160.809 2.03333 165.809 5.1C170.809 8.1 174.509 12.3667 176.909 17.9C179.375 23.3667 180.609 29.8 180.609 37.2ZM128.509 37.2C128.509 42.2 129.142 46.5 130.409 50.1C131.675 53.7 133.642 56.4667 136.309 58.4C138.975 60.3333 142.409 61.3 146.609 61.3C150.942 61.3 154.409 60.3333 157.009 58.4C159.675 56.4667 161.609 53.7 162.809 50.1C164.075 46.5 164.709 42.2 164.709 37.2C164.709 29.6667 163.309 23.7667 160.509 19.5C157.709 15.2333 153.109 13.1 146.709 13.1C142.442 13.1 138.975 14.0667 136.309 16C133.642 17.9333 131.675 20.7 130.409 24.3C129.142 27.9 128.509 32.2 128.509 37.2Z" fill="url(#paint0_linear_114_51)"/>
<path d="M194.398 74.1C191.865 74.1 189.632 73.9333 187.698 73.6C185.765 73.2667 184.098 72.8667 182.698 72.4V59.6C184.165 60.0667 185.698 60.5 187.298 60.9C188.965 61.2333 190.732 61.4 192.598 61.4C194.398 61.4 195.998 61.0667 197.398 60.4C198.798 59.7333 199.898 58.4667 200.698 56.6C201.498 54.7333 201.898 52.0667 201.898 48.6V1.6H216.998V48.5C216.998 54.6333 216.032 59.6 214.098 63.4C212.232 67.1333 209.598 69.8667 206.198 71.6C202.798 73.2667 198.865 74.1 194.398 74.1ZM228.004 73V1.6H243.104V73H228.004ZM317.909 73H298.709L267.609 19H267.209C267.276 20.6667 267.343 22.3667 267.409 24.1C267.476 25.7667 267.543 27.4667 267.609 29.2C267.743 30.8667 267.843 32.5667 267.909 34.3C267.976 35.9667 268.043 37.6667 268.109 39.4V73H254.609V1.6H273.709L304.709 55.1H305.009C304.943 53.4333 304.876 51.8 304.809 50.2C304.743 48.5333 304.676 46.9 304.609 45.3C304.609 43.6333 304.576 42 304.509 40.4C304.443 38.7333 304.376 37.0667 304.309 35.4V1.6H317.909V73ZM356.557 32.9H384.857V69.9C381.124 71.1667 377.224 72.1667 373.157 72.9C369.157 73.6333 364.59 74 359.457 74C352.39 74 346.357 72.6 341.357 69.8C336.424 67 332.657 62.8667 330.057 57.4C327.524 51.9333 326.257 45.2 326.257 37.2C326.257 29.7333 327.69 23.2667 330.557 17.8C333.49 12.3333 337.724 8.1 343.257 5.1C348.79 2.1 355.557 0.599996 363.557 0.599996C367.357 0.599996 371.09 0.999997 374.757 1.8C378.424 2.6 381.757 3.66666 384.757 5L379.757 17.1C377.557 15.9667 375.057 15.0333 372.257 14.3C369.457 13.5667 366.524 13.2 363.457 13.2C359.057 13.2 355.224 14.2 351.957 16.2C348.757 18.2 346.257 21.0333 344.457 24.7C342.724 28.3 341.857 32.5667 341.857 37.5C341.857 42.1667 342.49 46.3 343.757 49.9C345.024 53.5 347.024 56.3333 349.757 58.4C352.49 60.4 356.057 61.4 360.457 61.4C361.924 61.4 363.19 61.3667 364.257 61.3C365.39 61.1667 366.424 61.0333 367.357 60.9C368.29 60.7 369.19 60.5333 370.057 60.4V45.5H356.557V32.9Z" fill="#FF5B00"/>
<defs>
<linearGradient id="paint0_linear_114_51" x1="-9" y1="7.91831" x2="328.393" y2="65.7755" gradientUnits="userSpaceOnUse">
<stop stop-color="white"/>
<stop offset="1" stop-color="white"/>
</linearGradient>
</defs>
</svg>
