<svg width="225" height="297" viewBox="0 0 225 297" fill="none" xmlns="http://www.w3.org/2000/svg">
<path d="M217.762 57.8177L124.973 4.0752C122.195 2.01455 118.935 0.681885 115.495 0.200853C112.056 -0.280179 108.549 0.106152 105.302 1.324L6.57403 58.1843C1.74899 60.2019 0.449822 66.8052 0.0786645 68.0892V248.942C-0.150807 250.791 0.12394 252.668 0.874374 254.377C1.62481 256.086 2.82358 257.566 4.3469 258.663L69.4852 296.631C72.0592 297.134 74.7089 297.122 77.2784 296.598C79.8478 296.073 82.285 295.045 84.4465 293.575C86.6081 292.105 88.4503 290.223 89.8647 288.039C91.2792 285.855 92.2372 283.413 92.6826 280.857V190.798C92.6968 190.399 92.8047 190.009 92.998 189.659C93.1913 189.309 93.4646 189.008 93.796 188.78L129.427 168.787L142.232 161.45C144.514 160.219 146.401 158.381 147.681 156.144C148.96 153.908 149.579 151.361 149.47 148.794L147.428 81.8458C147.435 81.4676 147.335 81.0951 147.138 80.7708C146.941 80.4464 146.656 80.1833 146.315 80.0114C140.747 76.8933 130.169 71.0239 127.757 68.6394C126.546 67.7604 125.083 67.2862 123.581 67.2862C122.079 67.2862 120.616 67.7604 119.406 68.6394L69.8562 97.62C68.837 98.3213 68.0022 99.2531 67.4212 100.338C66.8401 101.423 66.5298 102.629 66.5159 103.856V259.581C66.5436 259.956 66.4645 260.331 66.2876 260.665C66.1108 260.998 65.843 261.275 65.5149 261.466C65.1867 261.657 64.8112 261.753 64.4306 261.744C64.05 261.735 63.6795 261.621 63.3611 261.415L27.3588 242.155C27.0307 241.968 26.7562 241.702 26.5614 241.381C26.3665 241.06 26.2578 240.695 26.2453 240.321C26.2453 226.198 26.2453 92.6674 26.2453 85.6974C25.8715 83.9133 26.003 82.0619 26.6251 80.3467C27.2472 78.6316 28.3359 77.1192 29.7714 75.9762C29.7714 75.9762 101.961 34.7067 106.601 31.7719C108.019 30.893 109.659 30.4266 111.333 30.4266C113.007 30.4266 114.647 30.893 116.065 31.7719C116.065 31.7719 179.348 68.4561 186.771 71.5742C191.323 74.0761 194.814 78.1122 196.606 82.9462C196.606 88.082 196.606 157.415 196.606 165.486C196.832 167.888 196.357 170.304 195.239 172.449C194.121 174.594 192.407 176.378 190.297 177.591L120.148 218.311C119.806 218.527 119.524 218.826 119.329 219.178C119.135 219.531 119.033 219.927 119.035 220.329V247.108C119.047 247.488 119.159 247.859 119.359 248.183C119.56 248.508 119.843 248.776 120.179 248.961C120.515 249.145 120.894 249.241 121.279 249.237C121.664 249.234 122.042 249.133 122.375 248.942L213.123 196.484C216.003 195.194 218.561 193.292 220.614 190.915C222.667 188.537 224.164 185.742 225 182.727V72.6747C224.646 66.9775 222.048 61.6442 217.762 57.8177ZM93.0535 117.613C93.04 116.455 93.3433 115.316 93.9313 114.315C94.5194 113.314 95.3704 112.489 96.3941 111.927L122.746 97.0697C123.366 96.716 124.069 96.5294 124.785 96.529C125.501 96.5286 126.204 96.7142 126.825 97.0672C127.445 97.4202 127.961 97.9284 128.32 98.5405C128.679 99.1526 128.869 99.8473 128.87 100.555V134.671C128.882 135.547 128.666 136.412 128.243 137.182C127.821 137.953 127.206 138.604 126.458 139.073L95.4661 157.415C95.1137 157.562 94.7311 157.623 94.3499 157.595C93.9686 157.566 93.5995 157.449 93.2732 157.252C92.947 157.055 92.6728 156.784 92.4733 156.461C92.2738 156.139 92.1548 155.774 92.1258 155.397L93.0535 117.613Z" fill="url(#paint0_linear_114_50)"/>
<defs>
<linearGradient id="paint0_linear_114_50" x1="-1.0348" y1="148.611" x2="225" y2="148.611" gradientUnits="userSpaceOnUse">
<stop stop-color="#EA5B0C"/>
<stop offset="1" stop-color="#F28D33"/>
</linearGradient>
</defs>
</svg>
