<svg id="Camada_1" data-name="Camada 1" xmlns="http://www.w3.org/2000/svg" xmlns:xlink="http://www.w3.org/1999/xlink" viewBox="0 0 12.17 16.22"><defs><style>.cls-1{fill:url(#Gradiente_sem_nome_46);}</style><linearGradient id="Gradiente_sem_nome_46" x1="224.47" y1="164.44" x2="236.65" y2="164.44" gradientUnits="userSpaceOnUse"><stop offset="0" stop-color="#ea5b0c"/><stop offset="1" stop-color="#f28d33"/></linearGradient></defs><path class="cls-1" d="M236.26,159.49h0l-5-2.93a1.11,1.11,0,0,0-1.06-.15h0l-5.32,3.1c-.26.11-.33.47-.35.54v9.86a.57.57,0,0,0,.23.53l3.51,2.07,0,0a1.06,1.06,0,0,0,1.25-.86v-4.91a.14.14,0,0,1,.06-.11l1.92-1.09.69-.4a.75.75,0,0,0,.39-.69l-.11-3.65h0a.11.11,0,0,0-.06-.1c-.3-.17-.87-.49-1-.62a.38.38,0,0,0-.45,0l-2.67,1.58a.42.42,0,0,0-.18.34v8.49a.11.11,0,0,1-.17.1L226,169.54a.12.12,0,0,1-.06-.1c0-.77,0-8.05,0-8.43a.54.54,0,0,1,.19-.53s3.89-2.25,4.14-2.41a.48.48,0,0,1,.51,0s3.41,2,3.81,2.17a1.17,1.17,0,0,1,.53.62v0c0,.28,0,4.06,0,4.5a.69.69,0,0,1-.34.66L231,168.24a.13.13,0,0,0-.06.11v1.46a.12.12,0,0,0,.18.1l4.89-2.86a1.16,1.16,0,0,0,.64-.75v-6A1.19,1.19,0,0,0,236.26,159.49Zm-6.72,3.26a.35.35,0,0,1,.18-.31l1.42-.81a.22.22,0,0,1,.33.19v1.86a.28.28,0,0,1-.13.24l-1.67,1a.13.13,0,0,1-.18-.11Z" transform="translate(-224.47 -156.33)"/></svg>