<svg width="292" height="93" viewBox="0 0 292 93" fill="none" xmlns="http://www.w3.org/2000/svg">
<path d="M88.72 37.44C92.4 37.44 95.08 38.24 96.76 39.84C98.4667 41.4133 99.32 43.5867 99.32 46.36C99.32 47.6133 99.1333 48.8133 98.76 49.96C98.3867 51.08 97.76 52.0933 96.88 53C96.0267 53.88 94.8933 54.5733 93.48 55.08C92.0667 55.5867 90.32 55.84 88.24 55.84H85.64V66H79.6V37.44H88.72ZM88.4 42.4H85.64V50.88H87.64C88.7867 50.88 89.7733 50.7333 90.6 50.44C91.4267 50.1467 92.0667 49.68 92.52 49.04C92.9733 48.4 93.2 47.5733 93.2 46.56C93.2 45.1467 92.8133 44.1067 92.04 43.44C91.2667 42.7467 90.0533 42.4 88.4 42.4ZM110.437 37.44C113.024 37.44 115.157 37.76 116.837 38.4C118.517 39.0133 119.771 39.96 120.597 41.24C121.424 42.4933 121.837 44.08 121.837 46C121.837 47.3067 121.584 48.4533 121.077 49.44C120.597 50.4 119.944 51.2267 119.117 51.92C118.317 52.5867 117.451 53.1333 116.517 53.56L124.917 66H118.197L111.397 55.04H108.157V66H102.117V37.44H110.437ZM109.997 42.4H108.157V50.12H110.117C111.451 50.12 112.531 49.9733 113.357 49.68C114.184 49.3867 114.784 48.9467 115.157 48.36C115.531 47.7467 115.717 47.0133 115.717 46.16C115.717 45.2533 115.504 44.5333 115.077 44C114.677 43.44 114.051 43.04 113.197 42.8C112.371 42.5333 111.304 42.4 109.997 42.4ZM151.843 51.68C151.843 53.8933 151.563 55.9067 151.003 57.72C150.47 59.5067 149.643 61.0533 148.523 62.36C147.43 63.6667 146.017 64.6667 144.283 65.36C142.577 66.0533 140.563 66.4 138.243 66.4C135.923 66.4 133.897 66.0533 132.163 65.36C130.457 64.64 129.043 63.64 127.923 62.36C126.83 61.0533 126.003 59.4933 125.443 57.68C124.91 55.8667 124.643 53.8533 124.643 51.64C124.643 48.68 125.123 46.1067 126.083 43.92C127.07 41.7333 128.563 40.04 130.563 38.84C132.59 37.6133 135.163 37 138.283 37C141.377 37 143.923 37.6133 145.923 38.84C147.923 40.04 149.403 41.7467 150.363 43.96C151.35 46.1467 151.843 48.72 151.843 51.68ZM131.003 51.68C131.003 53.68 131.257 55.4 131.763 56.84C132.27 58.28 133.057 59.3867 134.123 60.16C135.19 60.9333 136.563 61.32 138.243 61.32C139.977 61.32 141.363 60.9333 142.403 60.16C143.47 59.3867 144.243 58.28 144.723 56.84C145.23 55.4 145.483 53.68 145.483 51.68C145.483 48.6667 144.923 46.3067 143.803 44.6C142.683 42.8933 140.843 42.04 138.283 42.04C136.577 42.04 135.19 42.4267 134.123 43.2C133.057 43.9733 132.27 45.08 131.763 46.52C131.257 47.96 131.003 49.68 131.003 51.68Z" fill="url(#paint0_linear_218_19)"/>
<path d="M157.359 66.44C156.346 66.44 155.453 66.3733 154.679 66.24C153.906 66.1067 153.239 65.9467 152.679 65.76V60.64C153.266 60.8267 153.879 61 154.519 61.16C155.186 61.2933 155.893 61.36 156.639 61.36C157.359 61.36 157.999 61.2267 158.559 60.96C159.119 60.6933 159.559 60.1867 159.879 59.44C160.199 58.6933 160.359 57.6267 160.359 56.24V37.44H166.399V56.2C166.399 58.6533 166.013 60.64 165.239 62.16C164.493 63.6533 163.439 64.7467 162.079 65.44C160.719 66.1067 159.146 66.44 157.359 66.44ZM170.802 66V37.44H176.842V66H170.802ZM206.764 66H199.084L186.644 44.4H186.484C186.51 45.0667 186.537 45.7467 186.564 46.44C186.59 47.1067 186.617 47.7867 186.644 48.48C186.697 49.1467 186.737 49.8267 186.764 50.52C186.79 51.1867 186.817 51.8667 186.844 52.56V66H181.444V37.44H189.084L201.484 58.84H201.604C201.577 58.1733 201.55 57.52 201.524 56.88C201.497 56.2133 201.47 55.56 201.444 54.92C201.444 54.2533 201.43 53.6 201.404 52.96C201.377 52.2933 201.35 51.6267 201.324 50.96V37.44H206.764V66ZM222.223 49.96H233.543V64.76C232.049 65.2667 230.489 65.6667 228.863 65.96C227.263 66.2533 225.436 66.4 223.383 66.4C220.556 66.4 218.143 65.84 216.143 64.72C214.169 63.6 212.663 61.9467 211.623 59.76C210.609 57.5733 210.103 54.88 210.103 51.68C210.103 48.6933 210.676 46.1067 211.823 43.92C212.996 41.7333 214.689 40.04 216.903 38.84C219.116 37.64 221.823 37.04 225.023 37.04C226.543 37.04 228.036 37.2 229.503 37.52C230.969 37.84 232.303 38.2667 233.503 38.8L231.503 43.64C230.623 43.1867 229.623 42.8133 228.503 42.52C227.383 42.2267 226.209 42.08 224.983 42.08C223.223 42.08 221.689 42.48 220.383 43.28C219.103 44.08 218.103 45.2133 217.383 46.68C216.689 48.12 216.343 49.8267 216.343 51.8C216.343 53.6667 216.596 55.32 217.103 56.76C217.609 58.2 218.409 59.3333 219.503 60.16C220.596 60.96 222.023 61.36 223.783 61.36C224.369 61.36 224.876 61.3467 225.303 61.32C225.756 61.2667 226.169 61.2133 226.543 61.16C226.916 61.08 227.276 61.0133 227.623 60.96V55H222.223V49.96Z" fill="#EA5B0C"/>
<path d="M47.47 28.6634L27.3385 16.9217C26.7357 16.4715 26.0284 16.1803 25.2822 16.0752C24.536 15.9701 23.7752 16.0545 23.0706 16.3206L1.65079 28.7435C0.603953 29.1843 0.322088 30.627 0.241562 30.9075V70.4205C0.191776 70.8245 0.251385 71.2344 0.414198 71.6078C0.577011 71.9813 0.837096 72.3046 1.16759 72.5444L15.2999 80.8397C15.8584 80.9494 16.4333 80.9469 16.9907 80.8323C17.5482 80.7176 18.0769 80.4931 18.5459 80.1719C19.0149 79.8508 19.4146 79.4395 19.7214 78.9624C20.0283 78.4852 20.2362 77.9516 20.3328 77.3933V57.717C20.3359 57.6299 20.3593 57.5447 20.4012 57.4682C20.4432 57.3917 20.5025 57.3259 20.5744 57.2762L28.3048 52.9081L31.083 51.3052C31.5781 51.0362 31.9876 50.6346 32.2651 50.1459C32.5426 49.6572 32.6771 49.1009 32.6532 48.54L32.2103 33.9131C32.2119 33.8304 32.19 33.749 32.1473 33.6782C32.1046 33.6073 32.0427 33.5498 31.9688 33.5123C30.7609 32.831 28.4659 31.5487 27.9425 31.0277C27.6799 30.8357 27.3624 30.7321 27.0365 30.7321C26.7106 30.7321 26.3933 30.8357 26.1307 31.0277L15.3804 37.3594C15.1593 37.5126 14.9782 37.7162 14.8521 37.9532C14.726 38.1902 14.6587 38.4538 14.6557 38.7219V72.7448C14.6617 72.8268 14.6446 72.9088 14.6062 72.9816C14.5678 73.0544 14.5097 73.115 14.4385 73.1567C14.3673 73.1984 14.2859 73.2194 14.2033 73.2174C14.1207 73.2154 14.0403 73.1905 13.9712 73.1455L6.16022 68.9377C6.08904 68.8968 6.02948 68.8386 5.98721 68.7685C5.94494 68.6984 5.92136 68.6187 5.91865 68.537C5.91865 65.4513 5.91865 36.2774 5.91865 34.7546C5.83755 34.3648 5.86607 33.9603 6.00104 33.5856C6.136 33.2108 6.37221 32.8804 6.68366 32.6307C6.68366 32.6307 22.3459 23.6141 23.3525 22.9729C23.6602 22.7808 24.016 22.6789 24.3792 22.6789C24.7424 22.6789 25.0982 22.7808 25.4059 22.9729C25.4059 22.9729 39.1356 30.9877 40.7461 31.6689C41.7338 32.2155 42.4912 33.0973 42.88 34.1535C42.88 35.2756 42.88 50.4235 42.88 52.1868C42.9288 52.7117 42.8259 53.2395 42.5834 53.7081C42.3408 54.1767 41.9688 54.5665 41.5111 54.8317L26.2917 63.7281C26.2174 63.7754 26.1562 63.8405 26.114 63.9176C26.0718 63.9947 26.0498 64.0811 26.0501 64.1689V70.0197C26.0528 70.1028 26.0771 70.1837 26.1206 70.2547C26.1641 70.3256 26.2254 70.3841 26.2984 70.4245C26.3714 70.4649 26.4536 70.4857 26.5371 70.485C26.6206 70.4843 26.7025 70.4621 26.7748 70.4205L46.4634 58.9593C47.0883 58.6775 47.6433 58.262 48.0886 57.7426C48.534 57.2231 48.8589 56.6124 49.0402 55.9538V31.9094C48.9634 30.6646 48.3997 29.4994 47.47 28.6634ZM20.4133 41.7275C20.4103 41.4746 20.4761 41.2257 20.6037 41.007C20.7313 40.7883 20.9159 40.608 21.138 40.4852L26.8554 37.2392C26.9899 37.1619 27.1424 37.1212 27.2977 37.1211C27.453 37.121 27.6056 37.1615 27.7402 37.2387C27.8748 37.3158 27.9867 37.4268 28.0646 37.5605C28.1425 37.6943 28.1837 37.846 28.1841 38.0006V45.4543C28.1865 45.6458 28.1396 45.8347 28.048 46.003C27.9564 46.1714 27.8231 46.3136 27.6606 46.4161L20.9367 50.4235C20.8602 50.4555 20.7772 50.469 20.6945 50.4628C20.6118 50.4566 20.5317 50.4309 20.4609 50.3878C20.3902 50.3448 20.3307 50.2856 20.2874 50.2151C20.2441 50.1447 20.2183 50.065 20.212 49.9827L20.4133 41.7275Z" fill="url(#paint1_linear_218_19)"/>
<defs>
<linearGradient id="paint0_linear_218_19" x1="76" y1="7.47903" x2="239.949" y2="19.8251" gradientUnits="userSpaceOnUse">
<stop stop-color="white"/>
<stop offset="1" stop-color="white"/>
</linearGradient>
<linearGradient id="paint1_linear_218_19" x1="-1.41127e-05" y1="48.5" x2="49.0402" y2="48.5" gradientUnits="userSpaceOnUse">
<stop stop-color="#EA5B0C"/>
<stop offset="1" stop-color="#F28D33"/>
</linearGradient>
</defs>
</svg>
